<?xml version="1.0" encoding="UTF-8" standalone="no"?>
<!DOCTYPE svg PUBLIC "-//W3C//DTD SVG 20010904//EN" "http://www.w3.org/TR/2001/REC-SVG-20010904/DTD/svg10.dtd">
<svg version="1.0" xmlns="http://www.w3.org/2000/svg" width="1280.000000pt" height="1274.000000pt" viewBox="0 0 1280.000000 1274.000000" preserveAspectRatio="xMidYMid meet">
<g transform="translate(0.000000,1274.000000) scale(0.100000,-0.100000)" fill="#FFFFFF" stroke="none">
<path d="M7310 12510 c-3718 -6 -3914 -8 -4140 -41 -429 -61 -785 -164 -1015 -295 -306 -174 -754 -613 -1065 -1042 -254 -351 -502 -824 -685 -1307 -125 -328 -315 -906 -315 -956 0 -18 10 -19 188 -19 l187 0 70 113 c490 795 920 1256 1365 1465 378 177 859 262 1488 262 207 0 233 -2 239 -16 3 -9 1 -83 -6 -163 -30 -371 -67 -864 -146 -1956 -133 -1851 -147 -2003 -211 -2435 -129 -863 -264 -1476 -417 -1895 -81 -220 -111 -289 -212 -490 -155 -305 -261 -475 -571 -910 -572 -803 -671 -1010 -690 -1435 -22 -468 235 -862 676 -1043 356 -146 733 -107 1006 104 131 101 309 300 431 484 204 305 328 620 497 1265 282 1077 638 3371 756 4870 50 643 181 2439 230 3155 26 380 32 442 47 453 13 9 339 12 1552 12 845 0 1546 -3 1559 -6 30 -8 29 -35 -8 -297 -138 -980 -232 -1873 -365 -3447 -73 -879 -79 -1034 -80 -2180 0 -1000 1 -1022 46 -1485 82 -846 238 -1481 466 -1903 298 -550 818 -961 1364 -1079 120 -26 589 -26 729 0 491 91 1069 486 1439 984 339 455 554 1019 730 1913 55 279 91 495 91 542 l0 38 -185 0 c-217 0 -190 20 -231 -170 -54 -257 -112 -423 -194 -561 -141 -238 -326 -408 -574 -529 -410 -201 -957 -183 -1420 45 -503 249 -838 847 -878 1570 -16 277 -15 1524 0 1870 51 1145 136 2107 303 3425 61 484 154 1184 165 1231 4 20 13 28 36 33 17 3 695 6 1507 6 812 0 1481 4 1488 8 17 11 22 1787 5 1804 -16 16 -177 16 -5252 8z"/>
</g>
<script xmlns=""/></svg>